<svg id="Warstwa_1" data-name="Warstwa 1" xmlns="http://www.w3.org/2000/svg" viewBox="0 0 24 24"><defs><style>.cls-1{fill:#fff;}</style></defs><path class="cls-1" d="M9,9.35l.62-.69a2.89,2.89,0,0,0-.2-4.07l-1.06-1a2.86,2.86,0,0,0-1.93-.74,2.92,2.92,0,0,0-2.14.95l-.62.69a3.25,3.25,0,0,0-.23.29l0,0a3.51,3.51,0,0,0-.8,3.25A16.15,16.15,0,0,0,17,21.09a4.11,4.11,0,0,0,2.48-.52,2.92,2.92,0,0,0,.7-.56l.63-.7a2.89,2.89,0,0,0-.21-4.07l-1.05-1a2.91,2.91,0,0,0-1.94-.75,2.88,2.88,0,0,0-2.13,1l-.63.69a2.76,2.76,0,0,0-.59,1l-.06.17L14,16.3a12.09,12.09,0,0,1-6.42-5.89l-.09-.17.19-.06A2.89,2.89,0,0,0,9,9.35Z"/></svg>