<svg id="Warstwa_1" data-name="Warstwa 1" xmlns="http://www.w3.org/2000/svg" viewBox="0 0 24 24"><defs><style>.cls-1{fill:#fff;}</style></defs><path class="cls-1" d="M20.9,15.26a9.36,9.36,0,0,0,.6-3.32v-.11L19.57,11a7.2,7.2,0,0,0-.16-.78L21,8.83a9.59,9.59,0,0,0-1.73-3l-2.12.68a5.52,5.52,0,0,0-.53-.43l.3-2.24a9.28,9.28,0,0,0-3.23-1.22l-1.25,2h-.64l-1.27-2A9.22,9.22,0,0,0,7.28,3.7L7.6,6.05c-.18.13-.36.28-.53.43L4.79,5.75A9.72,9.72,0,0,0,3.07,8.69l1.72,1.56a5.36,5.36,0,0,0-.15.78l-2.14.88v0a9.52,9.52,0,0,0,.59,3.31l2.21.09a7.89,7.89,0,0,0,.44.81l-1,1.91a9.37,9.37,0,0,0,2.63,2.18L9,19a6.67,6.67,0,0,0,.94.35l.43,2a9.66,9.66,0,0,0,1.62.14,9.13,9.13,0,0,0,1.82-.18l.43-1.94a6.67,6.67,0,0,0,.94-.35l1.56,1.2a9.47,9.47,0,0,0,2.63-2.25l-.92-1.77a7.89,7.89,0,0,0,.44-.81ZM12,15a3,3,0,1,1,3-3A3,3,0,0,1,12,15Z"/></svg>