<svg id="Warstwa_1" data-name="Warstwa 1" xmlns="http://www.w3.org/2000/svg" viewBox="0 0 24 24"><defs><style>.cls-1{fill:#fff;}</style></defs><path class="cls-1" d="M12,11.86h0A5.18,5.18,0,1,0,6.82,6.68,5.14,5.14,0,0,0,12,11.86Z"/><path class="cls-1" d="M17.38,13.08A6,6,0,0,0,16,11.32l-.1.08-.26.2-2.38,4.88-.67-3.22.73-1a15,15,0,0,1-2.53.05l.78,1s-.45,2.34-.65,3.27L8.29,11.37l-.07-.06c-.17.16-.32.32-.47.48h0l-.06.07c-.12.13-.23.27-.33.4l-.12.16L7,12.79a1.3,1.3,0,0,1-.1.15c-.1.16-.19.32-.28.48l-.08.15-.18.37a1.54,1.54,0,0,0-.08.19c-.06.12-.11.24-.16.36L6,14.65c-.06.16-.12.32-.17.48a1.21,1.21,0,0,0,0,.18c0,.11-.07.22-.1.33a1.21,1.21,0,0,0,0,.18l-.09.35,0,.13-.09.43,0,.18a2.17,2.17,0,0,0,0,.25l0,.17,0,.26,0,.24c0,.05,0,.1,0,.15h0v0h0l0,.35c0,.22,0,.41,0,.52h0V22.5H18.78V18.87h0A13.51,13.51,0,0,0,17.38,13.08Z"/></svg>